<svg width="60" height="60" viewBox="0 0 60 60" fill="none" xmlns="http://www.w3.org/2000/svg">
<circle cx="30" cy="30" r="30" transform="rotate(-180 30 30)" fill="#007AFF"/>
<path d="M24.7927 30.812C24.5396 30.5589 24.5396 30.1485 24.7927 29.8954L31.2087 23.4793C31.4618 23.2262 31.8722 23.2262 32.1253 23.4793C32.3784 23.7325 32.3784 24.1428 32.1253 24.3959L25.7092 30.812C25.4561 31.0651 25.0458 31.0651 24.7927 30.812Z" fill="white"/>
<path d="M24.7927 29.8954C25.0458 29.6423 25.4557 29.6426 25.7089 29.8957L32.1249 36.3118C32.378 36.5649 32.378 36.9752 32.1249 37.2283C31.8718 37.4814 31.4614 37.4814 31.2083 37.2283L24.7927 30.812C24.5396 30.5589 24.5396 30.1485 24.7927 29.8954Z" fill="white"/>
</svg>
