<svg width="60" height="55" viewBox="0 0 60 55" fill="none" xmlns="http://www.w3.org/2000/svg">
<g filter="url(#filter0_d_1_11)">
<path d="M20 36L30 45.9999L51.0387 24.5445C56.3204 19.1585 56.3204 10.4257 51.0387 5.03959C45.7572 -0.346529 37.1942 -0.346529 31.9125 5.03959C31.171 5.79599 30 7.48821 30 7.48821C30 7.48821 28.829 5.79599 28.0875 5.03959C22.8058 -0.346529 14.2427 -0.346529 8.96117 5.03959C6.01885 8.04018 4.71568 12.0794 5.05165 16M5 26.3125H16.1111L20.2778 17.875L24.4444 26.3125H35.5555" fill="#DBDBDB"/>
<path d="M20 35.9999L30 45.9999L51.0387 24.5445C56.3204 19.1585 56.3204 10.4257 51.0387 5.03959C45.7572 -0.34653 37.1942 -0.34653 31.9125 5.03959C31.171 5.79599 30 7.48821 30 7.48821C30 7.48821 28.829 5.79599 28.0875 5.03959C22.8058 -0.34653 14.2427 -0.34653 8.96117 5.03959C6.01885 8.04018 4.71568 12.0794 5.05165 16M5 26.3125H16.1111L20.2778 17.875L24.4444 26.3125H35.5555" stroke="#007AFF" stroke-linecap="round" stroke-linejoin="round"/>
</g>
<defs>
<filter id="filter0_d_1_11" x="0.5" y="0.5" width="59" height="53.9999" filterUnits="userSpaceOnUse" color-interpolation-filters="sRGB">
<feFlood flood-opacity="0" result="BackgroundImageFix"/>
<feColorMatrix in="SourceAlpha" type="matrix" values="0 0 0 0 0 0 0 0 0 0 0 0 0 0 0 0 0 0 127 0" result="hardAlpha"/>
<feOffset dy="4"/>
<feGaussianBlur stdDeviation="2"/>
<feComposite in2="hardAlpha" operator="out"/>
<feColorMatrix type="matrix" values="0 0 0 0 0 0 0 0 0 0 0 0 0 0 0 0 0 0 0.25 0"/>
<feBlend mode="normal" in2="BackgroundImageFix" result="effect1_dropShadow_1_11"/>
<feBlend mode="normal" in="SourceGraphic" in2="effect1_dropShadow_1_11" result="shape"/>
</filter>
</defs>
</svg>
